/* XPM */
static char *bbedec4964064dc8d424b062ecbdaa64oDB9PxThbjfjeNQy[] = {
/* columns rows colors chars-per-pixel */
"64 64 16 1 ",
"  c #17111A",
". c #382F1C",
"X c #3C1727",
"o c #493F25",
"O c #502539",
"+ c #4B4026",
"@ c #5B482E",
"# c #6E5537",
"$ c #705638",
"% c #795E3E",
"& c #7D6140",
"* c #812B3B",
"= c #A9303D",
"- c #D13336",
"; c #E66161",
": c #EF9898",
/* pixels */
"@@@@@@@@@@@@@@@@@@@@@@@@@@@@@@@@@@@@@@@@@@@@@@@@@@@@@@@@@@@@@@@@",
"@@@@@@@@@@@@@@@@@@@@@@@@@@@@@@@@@@@@@@@@@@@@@@@@@@@@@@@@@@@@@@@@",
"@@@@&&&&&&&&&&&&&&&&&&&&&&&&&&&&&&&&&&&&&&&&&&@@@@@@@&&&&&&&&&..",
"@@@.&&&&&&&&&&&&&&&&&&&&&&&&&&&&&&&&&&&&&&&&&&&@@@@@&&&&&&&&&&..",
"@@&&&&&&&&&&&&&&&&&&&&&&&&&&&&&&&&&&&&&&&&&&&%%%@@@@%%%%%%%%%&&&",
"@@&&&&&&&&&&&&&&&&&&&&&&&&&&&&&&&&&&&&&&&&&&%%%%%@@@%%%%%%%%%%&&",
"@@&&&&&&&&&&&&&&&&&&&&&&&%%%%%%%%%%%%%%%%%&&&&&&&&@@&&&&&&&&&&&&",
"@@&&&&&&&&&&&&&&&&$$$&&&%%%%%%%%%%%%%%%%%%#&&&&&&&@@&&&&&&&&&&&&",
"@@$&&&&&&&&&&&&&&&$$$&&&&&&&&&&&&&&&&&&&&&@@&&&&&&&&&&&&&&&&&&&&",
"@@$$$&&&&&&&&&&&&&@@$$&&&&&&&&&&&&&&&&&&&&@@&&&&&&&&&&&&&&&&&&&&",
"ooo$$$$&&&&&&&&&&&@@@@&&&&&%%%       %%%%%@@&&&&&&&&&&&&&&&&&&&&",
"oooo$$$$&&&&&&&&&&@@@@&&&&%%%%       %%%%%@@#&&&&&&&&&&&&&&&&&&&",
"oooo++@@%%%%%%%%%%%%++##%%%%  ;;;;---  &&&oooo&&&&&&&&&&&&&&&&&&",
"oooo++@@%%%%%%%%%%%%++##%%% ;;;;;;-----  &oooo&&&&&&&&&&&&&&&&&&",
"@@@.&&&&&&&&&&&&&&&&oooo&&& ;;;;;;-----  &&ooo&&&&&&&&&&&&&&&&&.",
"@@@.&&&&&&&&&&&&&&&&oooo&  ;;;;;;;-------  &oo&&&&&&&&&&&&&&&&..",
"@@@@@@@@@@@@@@@@@@@@@@@@@  ;;;;;;;-------  @@@@@@@@@@@@@@@@@@@@@",
"@@@@@@@@@@@@@@@@@@@@@@@  ;;;;;;;;;--------- @@@@@@@@@@@@@@@@@@@@",
"&&&&&&&&&&&&&&&&&&&&&&&  ;;;;;;;;;--------- &&&&&&&&&&&&&&&&&&&&",
"&&&&&&&&&&&&&&&&&&&&&  ;;;;;;;::------------  &&&&&&&&&&&&&&&&&&",
"%%%%&&&&&&&&&&&&&$$$ ;;;;;;;::--====----------  %%%%%%%%%%%%%%%%",
"%%%%%&&&&&&&&&&&$$$$ ;;;;;;;::--====----------  %%%%%%%%%%%%%%%%",
"&&&%%%%%%%%%%%##@@  *--;;:::--=======-------OOOO  &&&&&&&&&&&&&&",
"&&&&%%%%%%%%%%##@@  *--;;:::--=======-------OOOO  &&&&&&&&&&&&&&",
"&&&&&&&&&&&&&&&&&&  ***-----===========----OOOOO  &&&&&&&&&&&&&&",
"&&&&&&&&&&&&&&&&&&  *******-=============OOOOOOO  &&&&&&&&&&&&&&",
"&&&&&&&&&&&&&&%%%%  *******-=============OOOOOOO  &&&&&&&&&&&&&&",
"&&&&&&&&&&&&&&%%%%  *******-=============OOOOOOO  &&&&&&&&&&&&&&",
"%%%%%%%%%%%%%%%&&&  *******-=============OOOOOOO  &&@&&&&&&&&&%%",
"%%%%%%%%%%%%%%&&&&  *******-=============OOOOOOO  &&@@&&&&&&%%%%",
"&&&&&&&&&&&&&&&&&&  *******==============OOOOOOO  %%++++%%%%&&%&",
"&&&&&&&&&&&&&&&&&&  *******==============OOOOOOO  %%++++%%%%%&&&",
"@@@@@@@@@@@@@@@@@@  *******-=============OOOOOOO  @@@@@@@@@@@@@@",
"@@@@@@@@@@@@@@@@@@  *******-=============OOOOOOO  @@@@@@@@@@@@@@",
"@@@.&&&&&&&ooo&&&&  *******==============OOOOOOO  &&&$$$$$$$$$..",
"@@@&&&&&&&&&oo&&&&  *******==============OOOOOOO  &&$$$$$$$$$$..",
"@@&&&&&&&&&&@@&&&&  *******==============OOOOOOO  %%$$@@@ooooooo",
"@@&&&&&&&&&&&@&&&&  *******==============OOOOOOO  %%@@@@@ooooooo",
"@@$$$$&&&&&&&&&&&&  *******==============OOOOOOO  &&@@@@oooooooo",
"@@$$$$$$&&&&&&&&&&  ***OOOOO===========OOXXXOOOO  &&&@@@oooooooo",
"@@ooo@$$%%%%%%%%%%  *OOOOOOOOO=======XXXXXXXXXOO  &&&&&&&&&&&&&&",
"@@ooo@@@%%%%%%%%%%  *OOOOOOOOO=======XXXXXXXXXOO  &&&&&&&&&&&&&&",
"@@oooo@@&&&&&&&&&&&& OOOOOOOOOOO====XXXXXXXXXX  &&&&&&&&&&&&&&&&",
"@@oooo@&&&&&&&&&&&&& OOOOOOOOOOO====XXXXXXXXXX  &&&&&&&&&&&&&&&&",
"@@&&&&&&&&&&&&%%%%%%%  OOOOOOOOOOOXXXXXXXXXX  %%%%%%%%%%%%%&&&&&",
"@@&&&&&&&&&&&&%%%%%%%%%  OOOOOOOOOXXXXXXXXX %%%%%%%%%%%%%%%&&&&&",
"@@@.&&&&&&&&&&&&&&&&&&&  OOOOOOOOOXXXXXXXXX &&&&&&&&&&&&&&&&&&..",
"@@@@&&&&&&&&&&&&&&&&&&&&&  OOOOOOOXXXXXXX  &&&&&&&&&&&&&&&&&&&..",
"@@@@@@@@@@@@@@@@@@@@@@@@@  OOOOOOOXXXXXXX  @@@@@@@@@@@@@@@@@@@@@",
"@@@@@@@@@@@@@@@@@@@@@@@@@@@ OOOOOOXXXXX  @@@@@@@@@@@@@@@@@@@@@@@",
"&&@@@o&&&&&&&&&&&&&&&&&&&&& OOOOOOXXXXX  &&&&&&&&&&&&&&&&&&&&&&&",
"&&@@oo&&&&&&&&&&&&&&&&&&&&&&  OOOOXXX  &&&&&&&&&&&&&&&&&&&&&&&&&",
"@@++%%%%%%%%%%%%%%%%%%%%%%%%@@       &&&&&&&&&&&&&&&&&&&&&&&&&&&",
"@@@+%%%%%%%%%%%%%%%%%%%%%%@@@o       &&&&&&&&&&&&&&&&&&&&&&&&&&&",
"%%@@oo&&&&&&&&&&&&&&&&&&&&&@@ooo@@&&%%%%%%%%%%%%%%%%%%%%%%%%%%%%",
"%%@@o&&&&&&&&&&&&&&&&&&&&&&&oooo@@&&%%%%%%%%%%%%%%%%%%%%%%%%%%%%",
"&&&&&&&&&&&&&&&&@@&&&&&&&&&&&&&&@@oooo@@&&&&&&&&&&&&&&&&&&&&&&&&",
"&&&&&&&&&&&&&&&&@@&&&&&&&&&&&&&&@@ooooo@@&&&&&&&&&&&&&&&&&&&&&&&",
"&&&&%%%%%%%%%%%%@@@%%%%%%%%%%%&&@@ooooo@@&&&&&&&@@&&&&&&&&&&@@@@",
"&&&%%%%%%%%%%%%%@@@@%%%%%%%%%&&&@@oooooo@@&&&&&&@@&&&&&&&&&&@@@@",
"++%%%&&&&&&&&&&&oo@@&&&&&&&&&&&&@@&&&&&&%%%%%%++@@%%%%%%%%%%%@@@",
"++%%&&&&&&&&&&&&oooo&&&&&&&&&&&&@@&&&&&&&&%%%%++@@%%%%%%%%%%%%@@",
"oo&&&&&&&&&&&&&&oooo&&&&&&&&&&&.@@.&&&&&&&&&&&oooooo&&&&&&&&&&oo",
"oo&&&&&&&&&&&&&&oooo&&&&&&&&&&..@@..&&&&&&&&&&oooooo&&&&&&&&&&oo"
};
