/* XPM */
static char *f98a5f55baf840b3b8c8d502a6c043595kLEXm20omJl6WCv[] = {
/* columns rows colors chars-per-pixel */
"64 64 24 1 ",
"  c #382F1C",
". c #493F25",
"X c #4B4026",
"o c #5B482E",
"O c #705638",
"+ c #795E3E",
"@ c #655357",
"# c #695559",
"$ c #6E585B",
"% c #725B5D",
"& c #7D6140",
"* c #6E5967",
"= c #926475",
"- c #AD707B",
"; c #D2727E",
": c #5D7889",
"> c #728896",
", c #B98080",
"< c #86A0A8",
"1 c #C39490",
"2 c #E28989",
"3 c #EDA799",
"4 c #FBCAAE",
"5 c #FAEBCF",
/* pixels */
"ooooooooooooooo********************************ooooooooooooooooo",
"ooooooooooooo**433*34445445543*3444454555543*34***oooooooooooooo",
"oooo&&&&&&&**34444*44444444444*4444444444444*44433**o&&&&&&&&&  ",
"ooo &&&&&&*3554444*44444444444*4444444444444*4445553*&&&&&&&&&  ",
"oo&&&&&&&&*3554444*44444444444*4444444444444*4445553*++++++++&&&",
"oo&&&&&&**35444433*34444444443*3444444444443*34444453*++++++++&&",
"oo&&&&&*3354443222*22222222222*2222222222222*223444453*&&&&&&&&&",
"oo&&&&&*44444322;;***************************;22334444*&&&&&&&&&",
"ooO&&&*34444322****=--------=**:***=-------=***22234443*&&&&&&&&",
"ooOOO&*4444422****=----------**:***---------=***2224444*&&&&&&&&",
"...OO*3444432******************:******************234443*%&&&&&&",
"....O*4444422**=------------=**:******************224444*%&&&&&&",
"....X*4444422**=------------=**:******************224444*%&&&&&&",
"....X*444442**=---,11111111,-**>***-,11111111,-=***24444*%&&&&&&",
"ooo &*344432**----1111111111-**>***-1111111111--***23443*%&&&&& ",
"ooo &**************************:*************************%&&&&  ",
"ooooo*344432****--11111111111-*>**-1111111111-*****23443*#oooooo",
"ooooo*444442*:>:**111111111111*:**11111111111*:>::*24444*#oooooo",
"&&&&&*544442*><>**111111111111*>**11111111111*><>>*24445*%&&&&&&",
"&&&&&*544442****--111111111111*>**11111111111-*****24445*%&&&&&&",
"++++&*544442****--111111111111*>**11111111111-*****24445*%++++++",
"+++++*444442*-111111111111111-*<**-1111111111111--*24444*%++++++",
"&&&++*544442*******************<*******************24445*%&&&&&&",
"&&&&+*444442*******************<**-1111111111111--*24444*%&&&&&&",
"&&&&&*444442*=---------------=*>**1111111111111111*24444*%&&&&&&",
"&&&&&*444442*-----------------*<**1111111111111111*24444*%&&&&&&",
"&&&&&*344432*=---------------=*>**-1111111111111--*23443*%&&&&&&",
"&&&&&**************************>*************************%&&&&&&",
"+++++**************************>*************************%&&&&++",
"+++++*344432*-111111111111111-*:**-1111111111111--*23443*%&&++++",
"&&&&&*444442*11111111111111111*:**1111111111111111*24444*%++&&+&",
"&&&&&*544442*111111111111111-******-11111111111111*24445*$+++&&&",
"ooooo*544442*-1111111111111,*<<*<<<*,11111111111--*24445*#oooooo",
"ooooo*444442*****************><*>><****************24444*#oooooo",
"ooo &*544442*****************><*>><*-11111111111--*24445*$OOOO  ",
"ooo&&*444442**=------------=*><*>><*11111111111111*24444*$OOOO  ",
"oo&&&*444442**=------------=*><*>><*11111111111111*24444*@......",
"oo&&&*444442**--------------*><*>><*11111111111111*24444*@......",
"ooOOO*444442**=------------=*><*>><*-11111111111--*24444*@......",
"ooOOO*344432*****************><*>><****************23443*@......",
"oo...********-1111111111111-*><*>><**********************%&&&&&&",
"oo...*344432*111111111111111*><*>><*=----------=***23443*%&&&&&&",
"oo...*444442*111111111111111*><*>><*------------***24444*%&&&&&&",
"oo...*544442*-1111111111111-*><*>><*=----------=***24445*%&&&&&&",
"oo&&&*544442*-1111111111111-*><*>><*=----------=***24445*%+&&&&&",
"oo&&&*544442*****************><*>><****************24445*%+&&&&&",
"ooo &*444442*-1111111111111,*:<*::<*,1111111111111*24444*%&&&&  ",
"oooo&*544442****--1111111111-**:***-111111111-*****24445*%&&&&  ",
"ooooo*444442*><>**11111111111,*:**,1111111111*><>>*24444*#oooooo",
"ooooo*444442*:>:**111111111111*>**11111111111*:>::*24444*#oooooo",
"&&ooo*444442****--11111111111-*>**11111111111-*****24444*%&&&&&&",
"&&oo.*344432*******************>*******************23443*%&&&&&&",
"oo..&*344432*******************>*******************23443*%&&&&&&",
"ooo.&********=--------------=**:**-1111111111111--*******%&&&&&&",
"&+oo.*344432*----------------**>**1111111111111111*23443*%++++++",
"++oo.*444442*=--------------=**:**1111111111111111*24444*$++++++",
"&&&&&*544442*******************>**-1111111111111--*24445*%&&&&&&",
"&&&&&*544442*******************:*******************24445*%&&&&&&",
"&&&&&*444442*-,11111111111111-*:*******************24444*%&&oooo",
"&&&&&*344432*11111111111111111*:***-------------***23443*%&&oooo",
".X&&&*344432*11111111111111111*:***-------------***23443*%++&ooo",
".X&&&*22222;*-111111111111111-*:***=-----------=***;2222*$++++oo",
"XX&&&****************************************************%&&&&..",
"X &&&****************************************************%&&&&.."
};
