/* XPM */
static char *cfaf04f3440645a6818bbf733bf50e53cGf5jVCqftJK8BkP[] = {
/* columns rows colors chars-per-pixel */
"64 64 18 1 ",
"  c #382F1C",
". c #1A1C2C",
"X c #493F25",
"o c #4B4026",
"O c #5B482E",
"+ c #6E5537",
"@ c #705638",
"# c #795E3E",
"$ c #29366F",
"% c #5D275D",
"& c #257179",
"* c #7D6140",
"= c #EF7D57",
"- c #38B764",
"; c #A7F070",
": c #3B5DC9",
"> c #94B0C2",
", c #F4F4F4",
/* pixels */
"OOOOOOOOOOOOOOOOOOOOOOOOOOOOOOOOOOOOOOOOOOOOOOOOOOOOOOOOOOOOOOOO",
"OOOOOOOOOOOOOOOOOOOOOOOOOOOOOOOOOOOOOOOOOOOOOOOOOOOOOOOOOOOOOOOO",
"OOOO******************************************OOOOOOO*********  ",
"OOO *******************************************OOOOO**********  ",
"OO******************$$$$$$$$$$$$............*###OOOO#########***",
"OO******************$$$$$$$$$$$$............#####OOO##########**",
"OO******************$$$$$$$$$$$$............******OO************",
"OO****************@@$$$$$$$$$$$$............******OO************",
"OO@*************$$$$&&&&----&&&&----&&&&;;;;....****************",
"OO@@@***********$$$$&&&&----&&&&----&&&&;;;;....****************",
"XXX@@@@*********$$$$&&&&----&&&&----&&&&;;;;....****************",
"XXXX@@@@********$$$$&&&&----&&&&----&&&&;;;;....****************",
"XXXXooOO####$$$$&&&&----&&&&----&&&&----&&&&----....************",
"XXXXooOO####$$$$&&&&----&&&&----&&&&----&&&&----....************",
"OOO ********$$$$&&&&----&&&&----&&&&----&&&&----....*********** ",
"OOO ********$$$$&&&&----&&&&----&&&&----&&&&----....**********  ",
"OOOOOOOOOOOO$$$$----&&&&----&&&&&&&&&&&&&&&&&&&&....OOOOOOOOOOOO",
"OOOOOOOOOOOO$$$$----&&&&----&&&&&&&&&&&&&&&&&&&&....OOOOOOOOOOOO",
"************$$$$----&&&&----&&&&&&&&&&&&&&&&&&&&....************",
"************$$$$----&&&&----&&&&&&&&&&&&&&&&&&&&....************",
"####********$$$$&&&&$$$$&&&&%%%%........%%%%........############",
"#####*******$$$$&&&&$$$$&&&&%%%%........%%%%........############",
"***#########$$$$&&&&$$$$&&&&%%%%........%%%%........************",
"****########$$$$&&&&$$$$&&&&%%%%........%%%%........************",
"************$$$$$$$$%%%%....%%%%>>>>$$$$%%%%....****************",
"************$$$$$$$$%%%%....%%%%>>>>$$$$%%%%....****************",
"************$$$$$$$$%%%%....%%%%>>>>$$$$%%%%....****************",
"************$$$$$$$$%%%%....%%%%>>>>$$$$%%%%....****************",
"###############*....============,,,,::::========....O*********##",
"##############**....============,,,,::::========....OO******####",
"****************....============,,,,::::========....oooo####**#*",
"****************....============,,,,::::========....oooo#####***",
"OOOOOOOOOOOOOOOO............================....OOOOOOOOOOOOOOOO",
"OOOOOOOOOOOOOOOO............================....OOOOOOOOOOOOOOOO",
"OOO *******XXX**............================....*****@@@@@@@@@  ",
"OOO*********XX**............================....****@@@@@@@@@@  ",
"OO**********OO**....&&&&&&&&................########@@OOOXXXXXXX",
"OO***********O**....&&&&&&&&................########OOOOOXXXXXXX",
"OO@@@@**********....&&&&&&&&................********OOOOXXXXXXXX",
"OO@@@@@@********....&&&&&&&&................*********OOOXXXXXXXX",
"OOXXXO@@########....========&&&&----....##########**************",
"OOXXXOOO########....========&&&&----....##########**************",
"OOXXXXOO********....========&&&&----....************************",
"OOXXXXO*********....========&&&&----....************************",
"OO************##....========....&&&&....++#################*****",
"OO************##....========....&&&&....++#################*****",
"OOO ************....========....&&&&....XX********************  ",
"OOOO************....========....&&&&....XX********************  ",
"OOOOOOOOOOOOOOOO................::::....OOOOOOOOOOOOOOOOOOOOOOOO",
"OOOOOOOOOOOOOOOO................::::....OOOOOOOOOOOOOOOOOOOOOOOO",
"**OOOX**********................::::....************************",
"**OOXX**********................::::....************************",
"OOoo########....&&&&----........&&&&----....********************",
"OOOo########....&&&&----........&&&&----....********************",
"##OOXX******....&&&&----........&&&&----....####################",
"##OOX*******....&&&&----........&&&&----....####################",
"********....$$$$$$$$....********....$$$$$$$$....****************",
"********....$$$$$$$$....********....$$$$$$$$....****************",
"****####....$$$$$$$$....######**....$$$$$$$$....OO**********OOOO",
"***#####....$$$$$$$$....#####***....$$$$$$$$....OO**********OOOO",
"oo###*******........************OO**........##ooOO###########OOO",
"oo##********........************OO**........##ooOO############OO",
"XX**********........*********** OO *........**XXXXXX**********XX",
"XX**********........**********  OO  ........**XXXXXX**********XX"
};
