/* XPM */
static char *f68072776b1a41b4b2325941ac028c73uHhzQvmtqKoV6Kvr[] = {
/* columns rows colors chars-per-pixel */
"64 64 18 1 ",
"  c #382F1C",
". c #1A1C2C",
"X c #493F25",
"o c #4B4026",
"O c #5B482E",
"+ c #705638",
"@ c #795E3E",
"# c #29366F",
"$ c #5D275D",
"% c #257179",
"& c #7D6140",
"* c #B13E53",
"= c #EF7D57",
"- c #38B764",
"; c #A7F070",
": c #3B5DC9",
"> c #94B0C2",
", c #F4F4F4",
/* pixels */
"OOOOOOOOOOOOOOOOOOOOOOOOOOOOOOOOOOOOOOOOOOOOOOOOOOOOOOOOOOOOOOOO",
"OOOOOOOOOOOOOOOOOOOOOOOOOOOOOOOOOOOOOOOOOOOOOOOOOOOOOOOOOOOOOOOO",
"OOOO&&&&&&&&&&&&&&&&&&&&&&&&&&&&&&&&&&&&&&&&&&OOOOOOO&&&&&&&&&  ",
"OOO &&&&&&&&&&&&&&&&&&&&&&&&&&&&&&&&&&&&&&&&&&&OOOOO&&&&&&&&&&  ",
"OO&&&&&&&&&&&&&&&&&&............############&@@@OOOO@@@@@@@@@&&&",
"OO&&&&&&&&&&&&&&&&&&............############@@@@@OOO@@@@@@@@@@&&",
"OO&&&&&&&&&&&&&&&&&&............############&&&&&&OO&&&&&&&&&&&&",
"OO&&&&&&&&&&&&&&&&++............############&&&&&&OO&&&&&&&&&&&&",
"OO+&&&&&&&&&&&&&....;;;;%%%%----%%%%----%%%%####&&&&&&&&&&&&&&&&",
"OO+++&&&&&&&&&&&....;;;;%%%%----%%%%----%%%%####&&&&&&&&&&&&&&&&",
"XXX++++&&&&&&&&&....;;;;%%%%----%%%%----%%%%####&&&&&&&&&&&&&&&&",
"XXXX++++&&&&&&&&....;;;;%%%%----%%%%----%%%%####&&&&&&&&&&&&&&&&",
"XXXXooOO@@@@....----%%%%----%%%%----%%%%----%%%%####&&&&&&&&&&&&",
"XXXXooOO@@@@....----%%%%----%%%%----%%%%----%%%%####&&&&&&&&&&&&",
"OOO &&&&&&&&....----%%%%----%%%%----%%%%----%%%%####&&&&&&&&&&& ",
"OOO &&&&&&&&....----%%%%----%%%%----%%%%----%%%%####&&&&&&&&&&  ",
"OOOOOOOOOOOO....%%%%%%%%%%%%%%%%%%%%----%%%%----####OOOOOOOOOOOO",
"OOOOOOOOOOOO....%%%%%%%%%%%%%%%%%%%%----%%%%----####OOOOOOOOOOOO",
"&&&&&&&&&&&&....%%%%%%%%%%%%%%%%%%%%----%%%%----####&&&&&&&&&&&&",
"&&&&&&&&&&&&....%%%%%%%%%%%%%%%%%%%%----%%%%----####&&&&&&&&&&&&",
"@@@@&&&&&&&&........$$$$........$$$$%%%%####%%%%####@@@@@@@@@@@@",
"@@@@@&&&&&&&........$$$$........$$$$%%%%####%%%%####@@@@@@@@@@@@",
"&&&@@@@@@@@@........$$$$........$$$$%%%%####%%%%####&&&&&&&&&&&&",
"&&&&@@@@@@@@........$$$$........$$$$%%%%####%%%%####&&&&&&&&&&&&",
"&&&&&&&&&&&&&&&&....$$$$####>>>>$$$$....$$$$########&&&&&&&&&&&&",
"&&&&&&&&&&&&&&&&....$$$$####>>>>$$$$....$$$$########&&&&&&&&&&&&",
"&&&&&&&&&&&&&&@@....$$$$####>>>>$$$$....$$$$########&&&&&&&&&&&&",
"&&&&&&&&&&&&&&@@....$$$$####>>>>$$$$....$$$$########&&&&&&&&&&&&",
"@@@@@@@@@@@@....========::::,,,,============....&&&&O&&&&&&&&&@@",
"@@@@@@@@@@@@....========::::,,,,============....&&&&OO&&&&&&@@@@",
"&&&&&&&&&&&&....========::::,,,,============....@@@@oooo@@@@&&@&",
"&&&&&&&&&&&&....========::::,,,,============....@@@@oooo@@@@@&&&",
"OOOOOOOOOOOOOOOO....================............OOOOOOOOOOOOOOOO",
"OOOOOOOOOOOOOOOO....================............OOOOOOOOOOOOOOOO",
"OOO &&&&&&&XXX&&....================............&&&&&+++++++++  ",
"OOO&&&&&&&&&XX&&....================............&&&&++++++++++  ",
"OO&&&&&&&&&&OO&&&&&&................%%%%%%%%%%%%....++OOOXXXXXXX",
"OO&&&&&&&&&&&O&&&&&&................%%%%%%%%%%%%....OOOOOXXXXXXX",
"OO++++&&&&&&&&&&&&&&................%%%%%%%%%%%%....OOOOXXXXXXXX",
"OO++++++&&&&&&&&&&&&................%%%%%%%%%%%%....&OOOXXXXXXXX",
"OOXXXO++@@@@@@@@....****....----%%%%%%%%========....&&&&&&&&&&&&",
"OOXXXOOO@@@@@@@@....****....----%%%%%%%%========....&&&&&&&&&&&&",
"OOXXXXOO&&&&&&&&....****....----%%%%%%%%========....&&&&&&&&&&&&",
"OOXXXXO&&&&&&&&&....****....----%%%%%%%%========....&&&&&&&&&&&&",
"OO&&&&&&&&&&&&@@....****....%%%%----....========....@@@@@@@&&&&&",
"OO&&&&&&&&&&&&@@....****....%%%%----....========....@@@@@@@&&&&&",
"OOO &&&&&&&&&&&&....****....%%%%----....========....&&&&&&&&&&  ",
"OOOO&&&&&&&&&&&&....****....%%%%----....========....&&&&&&&&&&  ",
"OOOOOOOOOOOOOOOOOOOO........::::####............OOOOOOOOOOOOOOOO",
"OOOOOOOOOOOOOOOOOOOO........::::####............OOOOOOOOOOOOOOOO",
"&&OOOX&&&&&&&&&&&&&&........::::####............&&&&&&&&&&&&&&&&",
"&&OOXX&&&&&&&&&&&&&&........::::####............&&&&&&&&&&&&&&&&",
"OOoo@@@@@@@@@@@@@@@@@@@@@@@@....----%%%%....&&&&&&&&&&&&&&&&&&&&",
"OOOo@@@@@@@@@@@@@@@@@@@@@@OO....----%%%%....&&&&&&&&&&&&&&&&&&&&",
"@@OOXX&&&&&&&&&&&&&&&&&&&&&O....----%%%%....@@@@@@@@@@@@@@@@@@@@",
"@@OOX&&&&&&&&&&&&&&&&&&&&&&&....----%%%%....@@@@@@@@@@@@@@@@@@@@",
"&&&&&&&&&&&&&&&&OO&&&&&&&&&&&&&&....####....&&&&&&&&&&&&&&&&&&&&",
"&&&&&&&&&&&&&&&&OO&&&&&&&&&&&&&&....####....&&&&&&&&&&&&&&&&&&&&",
"&&&&@@@@@@@@@@@@OOO@@@@@@@@@@@&&....####....&&&&OO&&&&&&&&&&OOOO",
"&&&@@@@@@@@@@@@@OOOO@@@@@@@@@&&&....####....&&&&OO&&&&&&&&&&OOOO",
"oo@@@&&&&&&&&&&&XXOO&&&&&&&&....########....@@ooOO@@@@@@@@@@@OOO",
"oo@@&&&&&&&&&&&&XXXX&&&&&&&&....########....@@ooOO@@@@@@@@@@@@OO",
"XX&&&&&&&&&&&&&&XXXX&&&&&&&&....########....&&XXXXXX&&&&&&&&&&XX",
"XX&&&&&&&&&&&&&&XXXX&&&&&&&&....########....&&XXXXXX&&&&&&&&&&XX"
};
